<?xml version="1.0" encoding="UTF-8"?>
<svg xmlns="http://www.w3.org/2000/svg" version="1.1" viewBox="0 0 290 120">
  <defs>
    <style>
      .cls-1 {
        fill: #2e3168;
      }

      .cls-2 {
        fill: #ef539b;
      }

      .cls-3 {
        fill: #fdbe16;
      }

      .cls-4 {
        fill: #43c5e0;
      }
    </style>
  </defs>
  <!-- Generator: Adobe Illustrator 28.6.0, SVG Export Plug-In . SVG Version: 1.2.0 Build 709)  -->
  <g>
    <g id="Layer_1">
      <path class="cls-1" d="M0,45v50c0,13.81,11.19,25,25,25h0c13.81,0,25-11.19,25-25v-50c0-13.81-11.19-25-25-25h0C11.19,20,0,31.19,0,45ZM25,100h0c-2.76,0-5-2.24-5-5v-50c0-2.76,2.24-5,5-5h0c2.76,0,5,2.24,5,5v50c0,2.76-2.24,5-5,5Z"/>
      <path class="cls-4" d="M90,25v55c0,5.52,4.48,10,10,10h0c5.52,0,10-4.48,10-10V25c0-2.76,2.24-5,5-5h0c2.76,0,5,2.24,5,5v55c0,5.52,4.48,10,10,10h0c5.52,0,10-4.48,10-10V25c0-2.76,2.24-5,5-5h0c2.76,0,5,2.24,5,5v55c0,5.52,4.48,10,10,10h0c5.52,0,10-4.48,10-10V25C170,11.19,158.81,0,145,0h-30C101.19,0,90,11.19,90,25Z"/>
      <path class="cls-4" d="M80,80V10c0-5.52-4.48-10-10-10h0c-5.52,0-10,4.48-10,10v70c0,22.09,17.91,40,40,40h60c5.52,0,10-4.48,10-10h0c0-5.52-4.48-10-10-10h-60c-11.05,0-20-8.95-20-20Z"/>
      <path class="cls-3" d="M180,75v20c0,13.81,11.19,25,25,25h0c13.81,0,25-11.19,25-25v-20c0-13.81-11.19-25-25-25h0c-13.81,0-25,11.19-25,25ZM200,95v-20c0-2.76,2.24-5,5-5h0c2.76,0,5,2.24,5,5v20c0,2.76-2.24,5-5,5h0c-2.76,0-5-2.24-5-5Z"/>
      <path class="cls-2" d="M280,80c5.74,0,10.36-4.84,9.98-10.67-.34-5.32-4.99-9.33-10.32-9.33h-14.66c-2.76,0-5-2.24-5-5v-10c0-2.76,2.24-5,5-5h14.66c5.33,0,9.98-4.02,10.32-9.33.38-5.82-4.24-10.67-9.98-10.67h-20c-11.05,0-20,8.95-20,20v60c0,11.05,8.95,20,20,20h19.66c5.33,0,9.98-4.02,10.32-9.33.38-5.82-4.24-10.67-9.98-10.67h-15c-2.76,0-5-2.24-5-5v-10c0-2.76,2.24-5,5-5h15Z"/>
    </g>
  </g>
</svg>