<?xml version="1.0" encoding="UTF-8"?>
<svg xmlns="http://www.w3.org/2000/svg" version="1.1" viewBox="0 0 290 120">
  <defs>
    <style>
      .cls-1 {
        fill: #2e3168;
      }

      .cls-2 {
        fill: #ef539b;
      }

      .cls-3 {
        fill: #43c5e0;
      }

      .cls-4 {
        fill: #fdbe16;
      }
    </style>
  </defs>
  <!-- Generator: Adobe Illustrator 28.6.0, SVG Export Plug-In . SVG Version: 1.2.0 Build 709)  -->
  <g>
    <g id="Layer_1">
      <g id="Layer_1-2" data-name="Layer_1">
        <path class="cls-1" d="M0,45v50c0,13.8,11.2,25,25,25h0c13.8,0,25-11.2,25-25v-50c0-13.8-11.2-25-25-25h0C11.2,20,0,31.2,0,45ZM25,100h0c-2.8,0-5-2.2-5-5v-50c0-2.8,2.2-5,5-5h0c2.8,0,5,2.2,5,5v50c0,2.8-2.2,5-5,5Z"/>
        <path class="cls-3" d="M90,25v55c0,5.5,4.5,10,10,10h0c5.5,0,10-4.5,10-10V25c0-2.8,2.2-5,5-5h0c2.8,0,5,2.2,5,5v55c0,5.5,4.5,10,10,10h0c5.5,0,10-4.5,10-10V25c0-2.8,2.2-5,5-5h0c2.8,0,5,2.2,5,5v55c0,5.5,4.5,10,10,10h0c5.5,0,10-4.5,10-10V25C170,11.2,158.8,0,145,0h-30C101.2,0,90,11.2,90,25Z"/>
        <path class="cls-3" d="M80,80V10C80,4.5,75.5,0,70,0h0C64.5,0,60,4.5,60,10v70c0,22.1,17.9,40,40,40h120c5.5,0,10-4.5,10-10h0c0-5.5-4.5-10-10-10h-120c-11.1,0-20-8.9-20-20Z"/>
        <path class="cls-4" d="M180,55v10c0,13.8,11.2,25,25,25h0c13.8,0,25-11.2,25-25v-10c0-13.8-11.2-25-25-25h0c-13.8,0-25,11.2-25,25ZM200,65v-10c0-2.8,2.2-5,5-5h0c2.8,0,5,2.2,5,5v10c0,2.8-2.2,5-5,5h0c-2.8,0-5-2.2-5-5Z"/>
        <path class="cls-2" d="M280,80c5.7,0,10.4-4.8,10-10.7-.3-5.3-5-9.3-10.3-9.3h-14.7c-2.8,0-5-2.2-5-5v-10c0-2.8,2.2-5,5-5h14.7c5.3,0,10-4,10.3-9.3.4-5.8-4.2-10.7-10-10.7h-20c-11.1,0-20,9-20,20v60c0,11.1,8.9,20,20,20h19.7c5.3,0,10-4,10.3-9.3.4-5.8-4.2-10.7-10-10.7h-15c-2.8,0-5-2.2-5-5v-10c0-2.8,2.2-5,5-5h15Z"/>
      </g>
    </g>
  </g>
</svg>